<?xml version="1.0" encoding="UTF-8" standalone="no"?>
<svg
   xmlns:dc="http://purl.org/dc/elements/1.1/"
   xmlns:cc="http://creativecommons.org/ns#"
   xmlns:rdf="http://www.w3.org/1999/02/22-rdf-syntax-ns#"
   xmlns:svg="http://www.w3.org/2000/svg"
   xmlns="http://www.w3.org/2000/svg"
   xmlns:sodipodi="http://sodipodi.sourceforge.net/DTD/sodipodi-0.dtd"
   xmlns:inkscape="http://www.inkscape.org/namespaces/inkscape"
   version="1.1"
   width="256"
   height="256"
   viewBox="0 0 256 256"
   xml:space="preserve"
   id="svg1072"
   sodipodi:docname="at_grey.svg"
   inkscape:version="1.0.1 (c497b03c, 2020-09-10)"><metadata
   id="metadata1076"><rdf:RDF><cc:Work
       rdf:about=""><dc:format>image/svg+xml</dc:format><dc:type
         rdf:resource="http://purl.org/dc/dcmitype/StillImage" /><dc:title /></cc:Work></rdf:RDF></metadata><sodipodi:namedview
   pagecolor="#ffffff"
   bordercolor="#666666"
   borderopacity="1"
   objecttolerance="10"
   gridtolerance="10"
   guidetolerance="10"
   inkscape:pageopacity="0"
   inkscape:pageshadow="2"
   inkscape:window-width="640"
   inkscape:window-height="480"
   id="namedview1074"
   showgrid="false"
   inkscape:zoom="0.84357594"
   inkscape:cx="128"
   inkscape:cy="128"
   inkscape:current-layer="svg1072"
   inkscape:document-rotation="0" />
<desc
   id="desc1062">Created with Fabric.js 1.7.22</desc>
<defs
   id="defs1064">
</defs>
<g
   transform="matrix(0.87,0,0,0.87,128,128)"
   style="fill:#999999"
   id="g1070">
	<g
   style="opacity:1;fill:#999999;fill-rule:nonzero;stroke:none;stroke-width:0;stroke-linecap:butt;stroke-linejoin:miter;stroke-miterlimit:10;stroke-dasharray:none"
   transform="matrix(3.22,0,0,3.22,-144.9,-144.9)"
   id="g1068">
	<path
   d="M 89.999,45 C 89.999,20.188 69.813,0.001 45,0.001 20.187,0.001 0.001,20.188 0.001,45 c 0,24.812 20.187,44.999 44.999,44.999 2.485,0 4.5,-2.015 4.5,-4.5 0,-2.485 -2.015,-4.5 -4.5,-4.5 C 25.15,80.999 9.001,64.85 9.001,45 9.001,25.15 25.15,9.001 45,9.001 c 19.85,0 35.999,16.149 35.999,36.054 0.059,4.718 -1.178,10.789 -4.069,13.716 -1.269,1.284 -2.757,1.882 -4.686,1.882 -4.443,0 -5.797,-1.516 -6.242,-2.013 -1.81,-2.026 -2.411,-6.23 -1.741,-12.159 0.002,-0.014 -10e-4,-0.027 0,-0.041 0.001,-0.013 0.006,-0.025 0.007,-0.038 l 0.08,-0.84 c 0.051,-0.482 0.106,-0.962 0.137,-1.445 l 1.792,-18.845 c 0.235,-2.474 -1.579,-4.67 -4.054,-4.906 -2.259,-0.215 -4.269,1.288 -4.783,3.434 -2.734,-2.239 -6.14,-3.475 -10.025,-3.454 -8.045,0 -14.87,4.117 -19.225,11.602 -5.494,9.44 -5.976,22.925 -1.122,31.366 3.074,5.346 7.96,8.29 13.757,8.29 6.671,0 12.66,-3.144 17.031,-8.885 0.43,0.682 0.904,1.324 1.432,1.916 2.975,3.329 7.333,5.018 12.954,5.018 4.31,0 8.144,-1.576 11.088,-4.557 C 89.669,58.682 90.037,48.05 89.999,45 Z M 40.827,62.604 c -2.546,0 -4.494,-1.235 -5.955,-3.776 -3.264,-5.677 -2.772,-15.704 1.098,-22.354 1.895,-3.256 5.417,-7.127 11.472,-7.127 0.024,0 0.049,0 0.073,0 7.669,0 8.058,10.348 8.058,12.422 0,0.511 -0.018,1.037 -0.053,1.574 l -0.148,1.555 c -0.988,8.046 -5.678,17.706 -14.545,17.706 z"
   style="opacity:1;fill:#999999;fill-rule:nonzero;stroke:none;stroke-width:1;stroke-linecap:butt;stroke-linejoin:miter;stroke-miterlimit:10;stroke-dasharray:none"
   stroke-linecap="round"
   id="path1066" />
</g>
</g>
</svg>
