<?xml version="1.0" encoding="UTF-8" standalone="no"?>
<svg
   xmlns:dc="http://purl.org/dc/elements/1.1/"
   xmlns:cc="http://creativecommons.org/ns#"
   xmlns:rdf="http://www.w3.org/1999/02/22-rdf-syntax-ns#"
   xmlns:svg="http://www.w3.org/2000/svg"
   xmlns="http://www.w3.org/2000/svg"
   xmlns:sodipodi="http://sodipodi.sourceforge.net/DTD/sodipodi-0.dtd"
   xmlns:inkscape="http://www.inkscape.org/namespaces/inkscape"
   version="1.1"
   width="256"
   height="256"
   viewBox="0 0 256 256"
   xml:space="preserve"
   id="svg22"
   sodipodi:docname="linkedin_grey.svg"
   inkscape:version="1.0.1 (c497b03c, 2020-09-10)"><metadata
   id="metadata26"><rdf:RDF><cc:Work
       rdf:about=""><dc:format>image/svg+xml</dc:format><dc:type
         rdf:resource="http://purl.org/dc/dcmitype/StillImage" /><dc:title></dc:title></cc:Work></rdf:RDF></metadata><sodipodi:namedview
   pagecolor="#ffffff"
   bordercolor="#666666"
   borderopacity="1"
   objecttolerance="10"
   gridtolerance="10"
   guidetolerance="10"
   inkscape:pageopacity="0"
   inkscape:pageshadow="2"
   inkscape:window-width="640"
   inkscape:window-height="480"
   id="namedview24"
   showgrid="false"
   inkscape:zoom="1.309242"
   inkscape:cx="-47.853791"
   inkscape:cy="93.361336"
   inkscape:current-layer="svg22" />
<desc
   id="desc10">Created with Fabric.js 1.7.22</desc>
<defs
   id="defs12">
</defs>
<g
   transform="translate(128 128) scale(0.87 0.87)"
   style="fill:#999999"
   id="g20">
	<g
   style="stroke:none;stroke-width:0;stroke-dasharray:none;stroke-linecap:butt;stroke-linejoin:miter;stroke-miterlimit:10;fill:#999999;fill-rule:nonzero;opacity:1"
   transform="translate(-144.89999999999998 -144.90000000000003) scale(3.22 3.22)"
   id="g18">
	<path
   d="M 1.48 29.91 h 18.657 v 60.01 H 1.48 V 29.91 z M 10.809 0.08 c 5.963 0 10.809 4.846 10.809 10.819 c 0 5.967 -4.846 10.813 -10.809 10.813 C 4.832 21.712 0 16.866 0 10.899 C 0 4.926 4.832 0.08 10.809 0.08"
   style="stroke:none;stroke-width:1;stroke-dasharray:none;stroke-linecap:butt;stroke-linejoin:miter;stroke-miterlimit:10;fill:#999999;fill-rule:nonzero;opacity:1"
   transform=" matrix(1 0 0 1 0 0) "
   stroke-linecap="round"
   id="path14" />
	<path
   d="M 31.835 29.91 h 17.89 v 8.206 h 0.255 c 2.49 -4.72 8.576 -9.692 17.647 -9.692 C 86.514 28.424 90 40.849 90 57.007 V 89.92 H 71.357 V 60.737 c 0 -6.961 -0.121 -15.912 -9.692 -15.912 c -9.706 0 -11.187 7.587 -11.187 15.412 V 89.92 H 31.835 V 29.91 z"
   style="stroke:none;stroke-width:1;stroke-dasharray:none;stroke-linecap:butt;stroke-linejoin:miter;stroke-miterlimit:10;fill:#999999;fill-rule:nonzero;opacity:1"
   transform=" matrix(1 0 0 1 0 0) "
   stroke-linecap="round"
   id="path16" />
</g>
</g>
</svg>
