<?xml version="1.0" encoding="UTF-8" standalone="no"?>
<svg
   xmlns:dc="http://purl.org/dc/elements/1.1/"
   xmlns:cc="http://creativecommons.org/ns#"
   xmlns:rdf="http://www.w3.org/1999/02/22-rdf-syntax-ns#"
   xmlns:svg="http://www.w3.org/2000/svg"
   xmlns="http://www.w3.org/2000/svg"
   xmlns:sodipodi="http://sodipodi.sourceforge.net/DTD/sodipodi-0.dtd"
   xmlns:inkscape="http://www.inkscape.org/namespaces/inkscape"
   version="1.1"
   id="Layer_1"
   x="0px"
   y="0px"
   viewBox="-91 49.217 56.693 56.693"
   enable-background="new -91 49.217 56.693 56.693"
   xml:space="preserve"
   sodipodi:docname="github_grey.svg"
   inkscape:version="1.0.1 (c497b03c, 2020-09-10)"><metadata
   id="metadata1175"><rdf:RDF><cc:Work
       rdf:about=""><dc:format>image/svg+xml</dc:format><dc:type
         rdf:resource="http://purl.org/dc/dcmitype/StillImage" /><dc:title /></cc:Work></rdf:RDF></metadata><defs
   id="defs1173" /><sodipodi:namedview
   pagecolor="#ffffff"
   bordercolor="#666666"
   borderopacity="1"
   objecttolerance="10"
   gridtolerance="10"
   guidetolerance="10"
   inkscape:pageopacity="0"
   inkscape:pageshadow="2"
   inkscape:window-width="640"
   inkscape:window-height="480"
   id="namedview1171"
   showgrid="false"
   inkscape:zoom="3.8092082"
   inkscape:cx="28.3465"
   inkscape:cy="28.3465"
   inkscape:current-layer="Layer_1"
   inkscape:document-rotation="0" />
<g
   id="g1168"
   style="fill:#999999">
	<path
   fill-rule="evenodd"
   clip-rule="evenodd"
   fill="#231F20"
   d="m -62.2607,54.1551 c -13.6897,0 -24.7909,11.0987 -24.7909,24.7909 0,10.9532 7.1033,20.2458 16.9536,23.524 1.2388,0.2293 1.6938,-0.538 1.6938,-1.1927 0,-0.5909 -0.0229,-2.5441 -0.0337,-4.6156 -6.8968,1.4998 -8.3521,-2.925 -8.3521,-2.925 -1.1277,-2.8653 -2.7526,-3.6274 -2.7526,-3.6274 -2.2495,-1.5387 0.1695,-1.507 0.1695,-1.507 2.4892,0.1748 3.8002,2.555 3.8002,2.555 2.211,3.7897 5.7995,2.6941 7.2143,2.0606 0.2225,-1.6021 0.8648,-2.6961 1.574,-3.3151 -5.5065,-0.6266 -11.2952,-2.7526 -11.2952,-12.2517 0,-2.7065 0.9686,-4.9181 2.5546,-6.6542 -0.2574,-0.6246 -1.1061,-3.1459 0.2402,-6.5609 0,0 2.0819,-0.6659 6.819,2.5415 1.9777,-0.5494 4.0985,-0.8248 6.2052,-0.8345 2.1068,0.0097 4.2292,0.2851 6.2105,0.8345 4.7319,-3.2075 6.8106,-2.5415 6.8106,-2.5415 1.3494,3.4149 0.5007,5.9362 0.2434,6.5609 1.5896,1.7361 2.5513,3.9477 2.5513,6.6542 0,9.522 -5.7995,11.6183 -11.32,12.2321 0.8892,0.7694 1.6814,2.278 1.6814,4.5908 0,3.3171 -0.0285,5.9867 -0.0285,6.8034 0,0.6599 0.4462,1.4329 1.7026,1.1895 9.8451,-3.2818 16.9395,-12.5712 16.9395,-23.5208 2e-4,-13.6923 -11.0993,-24.791 -24.7907,-24.791 z"
   id="path1152"
   style="fill:#999999" />
	<path
   fill="#231F20"
   d="m -77.6619,89.7492 c -0.0545,0.1235 -0.2486,0.1603 -0.4249,0.0757 -0.18,-0.081 -0.2806,-0.2489 -0.2225,-0.3724 0.0533,-0.1267 0.2473,-0.1619 0.4269,-0.0774 0.18,0.081 0.2827,0.2506 0.2205,0.3741 z m -0.3051,-0.2261"
   id="path1154"
   style="fill:#999999" />
	<path
   fill="#231F20"
   d="m -76.6576,90.8693 c -0.1183,0.1094 -0.3496,0.0585 -0.5063,-0.1147 -0.1624,-0.1728 -0.1924,-0.4041 -0.0726,-0.5152 0.1219,-0.1095 0.346,-0.0581 0.5084,0.1147 0.1623,0.1749 0.194,0.4042 0.0705,0.5152 z m -0.2366,-0.2538"
   id="path1156"
   style="fill:#999999" />
	<path
   fill="#231F20"
   d="m -75.6802,92.2969 c -0.152,0.1058 -0.4005,0.0068 -0.5541,-0.2137 -0.152,-0.2205 -0.152,-0.4851 0.0036,-0.5909 0.1536,-0.1058 0.3985,-0.0104 0.5541,0.2081 0.1515,0.2241 0.1515,0.4887 -0.0036,0.5965 z m 0,0"
   id="path1158"
   style="fill:#999999" />
	<path
   fill="#231F20"
   d="m -74.3412,93.6765 c -0.1359,0.1499 -0.4254,0.1094 -0.6371,-0.095 -0.2169,-0.1996 -0.277,-0.4835 -0.1411,-0.6334 0.1379,-0.15 0.429,-0.1078 0.6422,0.095 0.2154,0.1996 0.2807,0.485 0.136,0.6334 z m 0,0"
   id="path1160"
   style="fill:#999999" />
	<path
   fill="#231F20"
   d="m -72.4938,94.4775 c -0.0601,0.1941 -0.3388,0.2822 -0.6194,0.1997 -0.2806,-0.085 -0.4639,-0.3123 -0.4073,-0.5084 0.0581,-0.1957 0.3384,-0.2875 0.621,-0.1993 0.2802,0.0846 0.4638,0.3103 0.4057,0.508 z m 0,0"
   id="path1162"
   style="fill:#999999" />
	<path
   fill="#231F20"
   d="m -70.4648,94.6258 c 0.0068,0.2044 -0.2313,0.374 -0.526,0.3776 -0.2963,0.0068 -0.5364,-0.1588 -0.5396,-0.36 0,-0.2065 0.2329,-0.374 0.5292,-0.3792 0.2946,-0.0056 0.5364,0.1587 0.5364,0.3616 z m 0,0"
   id="path1164"
   style="fill:#999999" />
	<path
   fill="#231F20"
   d="m -68.577,94.3047 c 0.0353,0.1993 -0.1696,0.4041 -0.4623,0.4586 -0.2879,0.0529 -0.554,-0.0705 -0.5909,-0.2682 -0.0357,-0.2044 0.1728,-0.4093 0.4602,-0.4623 0.2932,-0.0509 0.5558,0.069 0.593,0.2719 z m 0,0"
   id="path1166"
   style="fill:#999999" />
</g>
</svg>
