<?xml version="1.0" encoding="UTF-8" standalone="no"?>
<svg
   xmlns:dc="http://purl.org/dc/elements/1.1/"
   xmlns:cc="http://creativecommons.org/ns#"
   xmlns:rdf="http://www.w3.org/1999/02/22-rdf-syntax-ns#"
   xmlns:svg="http://www.w3.org/2000/svg"
   xmlns="http://www.w3.org/2000/svg"
   xmlns:sodipodi="http://sodipodi.sourceforge.net/DTD/sodipodi-0.dtd"
   xmlns:inkscape="http://www.inkscape.org/namespaces/inkscape"
   version="1.1"
   id="Layer_1"
   x="0px"
   y="0px"
   width="56.693px"
   height="56.693px"
   viewBox="0 0 56.693 56.693"
   style="enable-background:new 0 0 56.693 56.693;"
   xml:space="preserve"
   sodipodi:docname="twitter_grey.svg"
   inkscape:version="1.0.1 (c497b03c, 2020-09-10)"><metadata
   id="metadata1401"><rdf:RDF><cc:Work
       rdf:about=""><dc:format>image/svg+xml</dc:format><dc:type
         rdf:resource="http://purl.org/dc/dcmitype/StillImage" /><dc:title></dc:title></cc:Work></rdf:RDF></metadata><defs
   id="defs1399" /><sodipodi:namedview
   pagecolor="#ffffff"
   bordercolor="#666666"
   borderopacity="1"
   objecttolerance="10"
   gridtolerance="10"
   guidetolerance="10"
   inkscape:pageopacity="0"
   inkscape:pageshadow="2"
   inkscape:window-width="640"
   inkscape:window-height="480"
   id="namedview1397"
   showgrid="false"
   inkscape:zoom="7.8365648"
   inkscape:cx="28.3465"
   inkscape:cy="28.3465"
   inkscape:current-layer="Layer_1" />
<path
   d="m 54.082,15.5495 c -1.811499,0.8047 -3.759699,1.3477 -5.805099,1.5913 2.0874,-1.25 3.6894,-3.2305 4.4443,-5.5918 -1.9531,1.1587 -4.1152,2 -6.418,2.4536 -1.8432,-1.9643 -4.4702,-3.1919 -7.3769,-3.1919 -5.5816,0 -10.1069,4.5254 -10.1069,10.107 0,0.792 0.0893,1.563 0.261699,2.3027 C 20.6812,22.7995 13.2334,18.7761 8.2486,12.6608 7.3789001,14.153 6.8804,15.8889 6.8804,17.7419 c 0,3.5063 1.7842001,6.5996 4.4961,8.4126 -1.6562999,-0.0532 -3.2153999,-0.5073 -4.5777,-1.2647 -8.999e-4,0.042 -8.999e-4,0.0845 -8.999e-4,0.128 0,4.896 3.4838999,8.9809 8.1078999,9.9101 -0.8482,0.2305 -1.7412,0.3545 -2.6631,0.3545 -0.6519,0 -1.2847,-0.063 -1.9019,-0.1816 1.2867,4.0151 5.0191,6.9375 9.441,7.019 -3.459,2.711 -7.8165,4.3267 -12.5523,4.3267 -0.8153999,0 -1.6196,-0.0484 -2.4106,-0.1411 4.4736001,2.8681 9.7856,4.541 15.4931,4.541 18.590801,0 28.755901,-15.4009 28.755901,-28.7569 0,-0.4375 -0.0088,-0.8745 -0.0283,-1.3076 1.9741,-1.4248 3.6884,-3.205 5.042399,-5.2324 z"
   id="path1394"
   style="fill:#999999;stroke-width:0.999999" />
</svg>
